<svg width="24" height="24" viewBox="0 0 24 24" fill="none" xmlns="http://www.w3.org/2000/svg">
<path d="M4.71261 3L6.01524 6.3C6.12576 6.58 6.28366 6.8 6.48892 6.96C6.69418 7.12 6.91524 7.2 7.15208 7.2C7.62576 7.2 7.98892 6.945 8.24155 6.435C8.49418 5.925 8.50997 5.4 8.28892 4.86L7.55471 3H9.44945L10.7521 6.3C10.8626 6.58 11.0205 6.8 11.2258 6.96C11.431 7.12 11.6521 7.2 11.8889 7.2C12.3626 7.2 12.7258 6.945 12.9784 6.435C13.231 5.925 13.2468 5.4 13.0258 4.86L12.2916 3H14.1863L15.4889 6.3C15.5994 6.58 15.7573 6.8 15.9626 6.96C16.1679 7.12 16.3889 7.2 16.6258 7.2C17.0994 7.2 17.4626 6.945 17.7152 6.435C17.9679 5.925 17.9837 5.4 17.7626 4.86L17.0284 3H19.2874C19.766 3 20.1711 3.21 20.5026 3.63C20.8342 4.05 21 4.5631 21 5.1693V18.8307C21 19.4369 20.8342 19.95 20.5026 20.37C20.1711 20.79 19.766 21 19.2874 21H4.71261C4.23403 21 3.82895 20.79 3.49737 20.37C3.16579 19.95 3 19.4369 3 18.8307V5.1693C3 4.5631 3.16579 4.05 3.49737 3.63C3.82895 3.21 4.23403 3 4.71261 3ZM4.42105 9V18.8307C4.42105 18.9385 4.44837 19.027 4.503 19.0962C4.55763 19.1654 4.6275 19.2 4.71261 19.2H19.2874C19.3725 19.2 19.4424 19.1654 19.497 19.0962C19.5516 19.027 19.5789 18.9385 19.5789 18.8307V9H4.42105Z" fill="#ACACAC"/>
<path d="M11.524 15.5784L13.2434 14.4739C13.3279 14.4203 13.3701 14.3458 13.3701 14.2504C13.3701 14.155 13.3279 14.0802 13.2434 14.0261L11.524 12.9216C11.4355 12.8609 11.3446 12.856 11.2515 12.907C11.1584 12.958 11.1118 13.0375 11.1118 13.1455V15.3545C11.1118 15.4625 11.1584 15.542 11.2515 15.593C11.3446 15.644 11.4355 15.6391 11.524 15.5784ZM12.0007 18C11.482 18 10.9945 17.9016 10.5381 17.7047C10.0817 17.5079 9.68474 17.2408 9.34717 16.9033C9.0096 16.5659 8.74234 16.1691 8.54536 15.7129C8.34845 15.2567 8.25 14.7693 8.25 14.2507C8.25 13.732 8.34842 13.2445 8.54526 12.7881C8.74211 12.3317 9.00924 11.9347 9.34668 11.5972C9.68411 11.2596 10.0809 10.9923 10.5371 10.7954C10.9933 10.5985 11.4807 10.5 11.9993 10.5C12.518 10.5 13.0055 10.5984 13.4619 10.7953C13.9183 10.9921 14.3153 11.2592 14.6528 11.5967C14.9904 11.9341 15.2577 12.3309 15.4546 12.7871C15.6515 13.2433 15.75 13.7307 15.75 14.2493C15.75 14.768 15.6516 15.2555 15.4547 15.7119C15.2579 16.1683 14.9908 16.5653 14.6533 16.9028C14.3159 17.2404 13.9191 17.5077 13.4629 17.7046C13.0067 17.9015 12.5193 18 12.0007 18ZM12 17.4079C12.8816 17.4079 13.6283 17.102 14.2401 16.4901C14.852 15.8783 15.1579 15.1316 15.1579 14.25C15.1579 13.3684 14.852 12.6217 14.2401 12.0099C13.6283 11.398 12.8816 11.0921 12 11.0921C11.1184 11.0921 10.3717 11.398 9.75987 12.0099C9.14803 12.6217 8.8421 13.3684 8.8421 14.25C8.8421 15.1316 9.14803 15.8783 9.75987 16.4901C10.3717 17.102 11.1184 17.4079 12 17.4079Z" fill="#ACACAC"/>
</svg>
