<svg width="24" height="24" viewBox="0 0 24 24" fill="none" xmlns="http://www.w3.org/2000/svg">
<g clip-path="url(#clip0_1_1687)">
<path d="M5.30775 21.5C4.80258 21.5 4.375 21.325 4.025 20.975C3.675 20.625 3.5 20.1974 3.5 19.6923V6.30777C3.5 5.8026 3.675 5.37502 4.025 5.02502C4.375 4.67502 4.80258 4.50002 5.30775 4.50002H6.69225V3.15377C6.69225 2.9346 6.76567 2.7516 6.9125 2.60477C7.05933 2.4581 7.24233 2.38477 7.4615 2.38477C7.68083 2.38477 7.86383 2.4581 8.0105 2.60477C8.15733 2.7516 8.23075 2.9346 8.23075 3.15377V4.50002H15.8077V3.13477C15.8077 2.92193 15.8795 2.74368 16.023 2.60002C16.1667 2.45652 16.3449 2.38477 16.5577 2.38477C16.7706 2.38477 16.9487 2.45652 17.0922 2.60002C17.2359 2.74368 17.3077 2.92193 17.3077 3.13477V4.50002H18.6923C19.1974 4.50002 19.625 4.67502 19.975 5.02502C20.325 5.37502 20.5 5.8026 20.5 6.30777V19.6923C20.5 20.1974 20.325 20.625 19.975 20.975C19.625 21.325 19.1974 21.5 18.6923 21.5H5.30775ZM5.30775 20H18.6923C18.7692 20 18.8398 19.9679 18.9038 19.9038C18.9679 19.8398 19 19.7693 19 19.6923V10.3078H5V19.6923C5 19.7693 5.03208 19.8398 5.09625 19.9038C5.16025 19.9679 5.23075 20 5.30775 20ZM5 8.80777H19V6.30777C19 6.23077 18.9679 6.16026 18.9038 6.09626C18.8398 6.0321 18.7692 6.00002 18.6923 6.00002H5.30775C5.23075 6.00002 5.16025 6.0321 5.09625 6.09626C5.03208 6.16026 5 6.23077 5 6.30777V8.80777Z" fill="#ACACAC"/>
<path d="M10.7716 17.0518L12 16.275L13.2284 17.062L12.9067 15.5901L13.9888 14.6089L12.5654 14.476L12 13.0858L11.4346 14.4658L10.0112 14.5986L11.0933 15.5901L10.7716 17.0518ZM12 16.996L10.4829 17.9552C10.4264 17.9898 10.3698 18.0044 10.313 17.9989C10.2563 17.9933 10.2049 17.9733 10.159 17.9388C10.113 17.9041 10.0774 17.8589 10.0524 17.8031C10.0275 17.7473 10.0235 17.6856 10.0404 17.6179L10.4432 15.8118L9.10383 14.5963C9.05378 14.5507 9.0219 14.4979 9.00819 14.4379C8.99441 14.3778 8.99802 14.3195 9.01901 14.2629C9.04 14.2063 9.07026 14.1601 9.10978 14.1242C9.14929 14.0882 9.2033 14.0648 9.27181 14.0537L11.0393 13.8918L11.7256 12.1863C11.7505 12.1229 11.7884 12.076 11.8391 12.0456C11.8899 12.0152 11.9435 12 12 12C12.0565 12 12.1101 12.0152 12.1609 12.0456C12.2116 12.076 12.2495 12.1229 12.2744 12.1863L12.9607 13.8918L14.7282 14.0537C14.7967 14.0648 14.8507 14.0882 14.8902 14.1242C14.9297 14.1601 14.96 14.2063 14.981 14.2629C15.002 14.3195 15.0056 14.3778 14.9918 14.4379C14.9781 14.4979 14.9462 14.5507 14.8962 14.5963L13.5568 15.8118L13.9596 17.6179C13.9765 17.6856 13.9725 17.7473 13.9476 17.8031C13.9226 17.8589 13.887 17.9041 13.841 17.9388C13.7951 17.9733 13.7437 17.9933 13.687 17.9989C13.6302 18.0044 13.5736 17.9898 13.5171 17.9552L12 16.996Z" fill="#ACACAC"/>
</g>
<defs>
<clipPath id="clip0_1_1687">
<rect width="24" height="24" fill="white"/>
</clipPath>
</defs>
</svg>
