<svg width="24" height="24" viewBox="0 0 24 24" fill="none" xmlns="http://www.w3.org/2000/svg">
<g clip-path="url(#clip0_1_1681)">
<path fill-rule="evenodd" clip-rule="evenodd" d="M11.0779 7.48651L10.9361 7.11014C10.8769 6.95414 10.8281 6.82905 10.7779 6.70687C10.707 6.53341 10.6372 6.37523 10.5641 6.22432C10.3794 5.84802 10.1729 5.48211 9.94575 5.12832C9.61672 4.61254 9.25816 4.11504 8.87175 3.63814C8.52038 3.2156 7.83225 3.30178 7.6035 3.79705L7.53375 3.94978C7.27799 4.52015 7.0384 5.09722 6.81525 5.68032C6.70275 5.97669 6.59812 6.26469 6.50437 6.54141C6.18225 7.49341 6 8.2596 6 8.82541C6 9.74251 6.21938 10.6305 6.63525 11.4331C6.72648 11.6021 6.88255 11.7296 7.06981 11.788C7.25707 11.8465 7.46053 11.8313 7.63634 11.7457C7.81215 11.6601 7.94622 11.5109 8.00966 11.3303C8.07311 11.1497 8.06084 10.9522 7.9755 10.7803C7.66166 10.1738 7.49881 9.50437 7.5 8.82578C7.5 8.45705 7.65412 7.80869 7.92975 6.99487C8.01712 6.73669 8.11538 6.46541 8.22225 6.18541C8.3865 5.75523 8.469 5.58687 8.469 5.58687C8.53688 5.68723 8.604 5.78905 8.66887 5.8916C8.87888 6.22178 9.06075 6.54178 9.20662 6.84251C9.2655 6.96469 9.32325 7.09596 9.384 7.2436C9.42863 7.35269 9.47288 7.46651 9.52838 7.61232L9.67087 7.99051C10.2326 9.46578 10.7689 10.1189 12 10.1189C12.1989 10.1189 12.3897 10.0422 12.5303 9.90586C12.671 9.76947 12.75 9.58448 12.75 9.3916C12.75 9.19871 12.671 9.01373 12.5303 8.87734C12.3897 8.74095 12.1989 8.66432 12 8.66432C11.6287 8.66432 11.4383 8.43232 11.0779 7.48651ZM18 8.82578C18 7.26214 17.3602 5.79523 16.2428 4.7116C16.152 4.62396 15.7684 3.92796 15.3056 2.98432C14.8948 2.14142 14.4977 1.29235 14.1143 0.437414C13.875 -0.0967676 13.1167 -0.154949 12.7935 0.337051C12.6927 0.493369 12.5962 0.652211 12.504 0.813414C12.2802 1.20042 12.0737 1.59654 11.8849 2.00069C11.5174 2.78796 11.2399 3.56432 11.0872 4.30614C10.9226 5.10796 10.911 5.84178 11.0899 6.49378C11.1138 6.58754 11.1567 6.67576 11.2161 6.75326C11.2756 6.83077 11.3503 6.89602 11.4361 6.9452C11.5218 6.99439 11.6168 7.02652 11.7154 7.03973C11.8141 7.05293 11.9145 7.04695 12.0107 7.02212C12.107 6.99729 12.1972 6.95412 12.2761 6.89513C12.3549 6.83613 12.4209 6.76249 12.4701 6.67851C12.5193 6.59452 12.5507 6.50188 12.5626 6.40598C12.5745 6.31008 12.5665 6.21285 12.5392 6.11996C12.4267 5.70905 12.435 5.19123 12.5584 4.59014C12.6859 3.97051 12.9278 3.29414 13.2514 2.60032L13.3676 2.38832C13.5587 2.7969 13.7532 3.20394 13.9511 3.60941C14.529 4.78832 14.9074 5.47414 15.1819 5.74032C15.6006 6.145 15.9326 6.62597 16.1588 7.15557C16.385 7.68516 16.501 8.25291 16.5 8.82614C16.5 9.50614 16.3403 10.1618 16.0369 10.7571C15.9502 10.9298 15.9376 11.1288 16.0017 11.3105C16.0658 11.4923 16.2015 11.6421 16.3791 11.7272C16.5567 11.8123 16.7618 11.8258 16.9496 11.7648C17.1375 11.7037 17.2928 11.5731 17.3816 11.4014C17.7897 10.6004 18.0013 9.71918 18 8.82578ZM14.0512 14.7516L12.6007 22.0643C12.5516 22.3134 12.261 22.5454 12 22.5454C11.7394 22.5454 11.4484 22.312 11.3993 22.0647L9.7365 13.6807C9.71789 13.5869 9.6804 13.4976 9.62619 13.4178C9.57198 13.3381 9.5021 13.2695 9.42055 13.2159C9.339 13.1624 9.24737 13.1249 9.15089 13.1057C9.05441 13.0865 8.95497 13.0859 8.85825 13.104C8.76153 13.122 8.66943 13.1584 8.58719 13.2109C8.50496 13.2635 8.43421 13.3313 8.37898 13.4103C8.32376 13.4894 8.28513 13.5783 8.26532 13.6718C8.2455 13.7654 8.24488 13.8618 8.2635 13.9556L9.92625 22.3392C10.1111 23.2712 11.0198 24 12 24C12.9799 24 13.8889 23.2727 14.0738 22.3392L15.5243 15.0265L15.7365 13.9556C15.7551 13.8618 15.7545 13.7654 15.7347 13.6718C15.7149 13.5783 15.6762 13.4894 15.621 13.4103C15.5658 13.3313 15.495 13.2635 15.4128 13.2109C15.3306 13.1584 15.2385 13.122 15.1418 13.104C15.045 13.0859 14.9456 13.0865 14.8491 13.1057C14.7526 13.1249 14.661 13.1624 14.5794 13.2159C14.4979 13.2695 14.428 13.3381 14.3738 13.4178C14.3196 13.4976 14.2821 13.5869 14.2635 13.6807L14.0512 14.7516Z" fill="#ACACAC"/>
<path fill-rule="evenodd" clip-rule="evenodd" d="M14.25 15.6364C14.4489 15.6364 14.6397 15.5597 14.7803 15.4234C14.921 15.287 15 15.102 15 14.9091C15 14.7162 14.921 14.5312 14.7803 14.3948C14.6397 14.2584 14.4489 14.1818 14.25 14.1818H9.75C9.55109 14.1818 9.36032 14.2584 9.21967 14.3948C9.07902 14.5312 9 14.7162 9 14.9091C9 15.102 9.07902 15.287 9.21967 15.4234C9.36032 15.5597 9.55109 15.6364 9.75 15.6364H14.25ZM13.875 17.8182C14.0739 17.8182 14.2647 17.7416 14.4053 17.6052C14.546 17.4688 14.625 17.2838 14.625 17.0909C14.625 16.898 14.546 16.713 14.4053 16.5767C14.2647 16.4403 14.0739 16.3636 13.875 16.3636H10.125C9.92609 16.3636 9.73532 16.4403 9.59467 16.5767C9.45402 16.713 9.375 16.898 9.375 17.0909C9.375 17.2838 9.45402 17.4688 9.59467 17.6052C9.73532 17.7416 9.92609 17.8182 10.125 17.8182H13.875Z" fill="#ACACAC"/>
</g>
<defs>
<clipPath id="clip0_1_1681">
<rect width="12" height="24" fill="white" transform="translate(6)"/>
</clipPath>
</defs>
</svg>
