<svg width="352" height="46" viewBox="0 0 352 46" fill="none" xmlns="http://www.w3.org/2000/svg">
<g filter="url(#filter0_b_1_1701)">
<mask id="path-1-inside-1_1_1701" fill="white">
<path d="M0 0H360V46H0V0Z"/>
</mask>
<path d="M0 0H360V46H0V0Z" fill="#010311" fill-opacity="0.1"/>
<path d="M360 45H0V47H360V45Z" fill="#333333" mask="url(#path-1-inside-1_1_1701)"/>
<path d="M24.3802 18.5999L16.5341 31.3111H20.1413L24.5626 24.1486L25.1538 25.0163L27.6311 28.6526L29.3206 25.8947L24.3802 18.5999Z" fill="white"/>
<path d="M21.261 31.3106H25.9715L31.7074 22.0284L38.0142 31.3106H42.749L31.4957 14.762L21.261 31.3106Z" fill="white"/>
<path d="M27.1003 31.3103L29.4386 27.5252L30.5262 29.1213L32.8498 25.3691L36.8923 31.3103H27.1003Z" fill="#3399FF"/>
<path d="M62.2221 21.8752C62.2221 22.8212 62.6676 23.7388 63.6264 23.7388C64.4367 23.7388 64.666 23.3896 64.8551 22.9381H66.7863C66.5435 23.8552 65.7733 25.369 63.5858 25.369C61.2768 25.369 60.2773 23.5202 60.2773 21.5402C60.2773 19.1672 61.3982 17.4785 63.6529 17.4785C66.0432 17.4785 66.8665 19.3563 66.8665 21.2341C66.8665 21.4959 66.8665 21.656 66.8394 21.8746H62.2215L62.2221 21.8752ZM64.9229 20.5942C64.9093 19.7208 64.5852 18.9781 63.64 18.9781C62.6947 18.9781 62.3435 19.6624 62.2627 20.5942H64.9229Z" fill="white"/>
<path d="M69.6493 22.9238C69.7978 23.5353 70.2569 23.8698 70.9729 23.8698C71.6889 23.8698 71.9452 23.5932 71.9452 23.1276C71.9452 22.662 71.6482 22.4582 70.6487 22.1958C68.3669 21.5843 68.0021 20.8274 68.0021 19.765C68.0021 18.7026 68.7176 17.4795 70.8244 17.4795C72.9311 17.4795 73.6737 18.7315 73.7273 19.7502H71.891C71.8233 19.4737 71.6482 18.9496 70.743 18.9496C70.1083 18.9496 69.8921 19.2551 69.8921 19.5901C69.8921 19.9688 70.1083 20.1432 71.2422 20.4344C73.5783 21.017 73.9159 21.8756 73.9159 22.9823C73.9159 24.2343 73.0249 25.37 70.9045 25.37C68.7842 25.37 67.9067 24.2638 67.7446 22.9244H69.6487L69.6493 22.9238Z" fill="white"/>
<path d="M42.749 25.3692L42.7502 14.7617H45.3042L47.0219 19.8568L48.717 14.7617H51.1609V25.3692H48.9723L48.979 19.3446L47.8345 22.8311H46.0467L44.8863 19.1879L44.9326 25.3692H42.749Z" fill="white"/>
<path d="M52.8408 25.3696V17.6217H55.0425V25.3696H52.8408ZM52.8408 16.7859V14.7627H55.0425V16.7859H52.8408Z" fill="white"/>
<path d="M58.9199 14.7627H56.7256V25.3696H58.9199V14.7627Z" fill="white"/>
<path d="M46.7915 27.5476H49.7131V28.3499H47.8841V28.9473H49.5804V29.7139H47.8841V30.4549H49.7656V31.306H46.7915V27.5476Z" fill="white"/>
<path d="M52.1621 29.9368C52.1621 29.7233 52.1197 29.5638 52.0345 29.4587C51.9492 29.3537 51.8419 29.3009 51.712 29.3009C51.598 29.3009 51.5025 29.3514 51.4257 29.4519C51.3489 29.553 51.31 29.7222 51.31 29.9596C51.31 30.1816 51.3495 30.3445 51.4291 30.4479C51.5087 30.5512 51.607 30.6029 51.7239 30.6029C51.8492 30.6029 51.9531 30.5507 52.0367 30.4462C52.1203 30.3417 52.1621 30.1719 52.1621 29.9363M53.144 27.5474V31.3059H52.227V30.9033C52.0988 31.0742 51.9814 31.1895 51.8758 31.2491C51.7346 31.3274 51.5776 31.3672 51.4043 31.3672C51.0559 31.3672 50.7899 31.2264 50.6064 30.9442C50.4229 30.662 50.3308 30.3196 50.3308 29.9158C50.3308 29.4644 50.4325 29.1192 50.6352 28.8801C50.8379 28.6411 51.096 28.5213 51.4088 28.5213C51.5613 28.5213 51.6996 28.5485 51.8238 28.6036C51.9481 28.6581 52.0587 28.7404 52.1547 28.8495V27.5469H53.144V27.5474Z" fill="white"/>
<path d="M56.5771 31.3057H55.6623V30.8645C55.5263 31.0457 55.3885 31.1746 55.2496 31.2518C55.1107 31.3284 54.9401 31.367 54.738 31.367C54.4686 31.367 54.2569 31.2813 54.1038 31.1093C53.9508 30.9372 53.874 30.6732 53.874 30.316V28.583H54.8582V30.0804C54.8582 30.2513 54.8882 30.3728 54.9475 30.4443C55.0068 30.5159 55.0903 30.5522 55.1976 30.5522C55.3151 30.5522 55.4105 30.5045 55.485 30.4086C55.5596 30.3126 55.5968 30.1411 55.5968 29.893V28.583H56.5765V31.3057H56.5771Z" fill="white"/>
<path d="M59.2183 30.2397L60.1494 30.3527C60.098 30.5594 60.0139 30.7383 59.8964 30.8899C59.7795 31.0409 59.6299 31.1585 59.4475 31.2425C59.2651 31.326 59.0342 31.368 58.753 31.368C58.4718 31.368 58.2561 31.3413 58.0754 31.2874C57.8947 31.2334 57.7394 31.1465 57.6095 31.0262C57.4796 30.9058 57.3774 30.7644 57.304 30.602C57.23 30.4396 57.1933 30.2244 57.1933 29.9564C57.1933 29.6884 57.238 29.4431 57.3283 29.2568C57.3944 29.12 57.4836 28.9979 57.5976 28.8889C57.7117 28.7804 57.8286 28.6998 57.9489 28.647C58.1397 28.5635 58.3842 28.5215 58.6829 28.5215C59.1002 28.5215 59.4181 28.601 59.6372 28.76C59.8563 28.919 60.0099 29.1512 60.098 29.4573L59.1765 29.5879C59.1477 29.4715 59.0952 29.384 59.0189 29.325C58.9427 29.2659 58.8405 29.2364 58.7123 29.2364C58.5502 29.2364 58.4192 29.2983 58.3187 29.4221C58.2182 29.5458 58.1685 29.7332 58.1685 29.9836C58.1685 30.2074 58.2182 30.3771 58.3176 30.493C58.417 30.6088 58.544 30.6673 58.6982 30.6673C58.8264 30.6673 58.9342 30.6321 59.0218 30.5622C59.1093 30.4924 59.1742 30.3845 59.2177 30.2392" fill="white"/>
<path d="M62.412 30.0137C62.2771 30.0648 62.137 30.1103 61.9908 30.1494C61.792 30.2062 61.6655 30.2613 61.613 30.3164C61.5583 30.3726 61.5312 30.4368 61.5312 30.5089C61.5312 30.5906 61.5583 30.6582 61.6119 30.7104C61.6655 30.7627 61.7446 30.7888 61.8491 30.7888C61.9535 30.7888 62.0597 30.7604 62.1534 30.7042C62.2472 30.648 62.3138 30.5793 62.3533 30.4981C62.3928 30.4169 62.4126 30.3113 62.4126 30.1812V30.0149L62.412 30.0137ZM61.5622 29.4652L60.626 29.3602C60.6616 29.1858 60.7124 29.049 60.779 28.9485C60.8456 28.8485 60.9416 28.7617 61.0664 28.6884C61.1562 28.6356 61.2799 28.5942 61.4368 28.5652C61.5944 28.5362 61.7644 28.5215 61.9473 28.5215C62.2409 28.5215 62.477 28.5391 62.6548 28.5743C62.8327 28.6095 62.9812 28.6822 63.0998 28.7935C63.1834 28.8701 63.2489 28.9791 63.2974 29.1205C63.3454 29.2614 63.3697 29.3959 63.3697 29.5243V30.7269C63.3697 30.8552 63.3776 30.9557 63.3929 31.0284C63.4081 31.1011 63.4414 31.1937 63.4928 31.3067H62.5735C62.5368 31.2368 62.5126 31.1834 62.5013 31.1465C62.49 31.1096 62.4787 31.0523 62.4674 30.9733C62.3392 31.1051 62.2116 31.1988 62.0845 31.2556C61.9112 31.3305 61.7102 31.3685 61.4803 31.3685C61.1754 31.3685 60.9439 31.2936 60.7858 31.1431C60.6277 30.9927 60.5486 30.807 60.5486 30.5867C60.5486 30.38 60.6057 30.2096 60.7197 30.0762C60.8338 29.9427 61.0438 29.8439 61.3505 29.7786C61.7181 29.7003 61.9563 29.6452 62.0653 29.6134C62.1743 29.5816 62.2901 29.5402 62.412 29.4891C62.412 29.3607 62.3872 29.271 62.3375 29.2199C62.2878 29.1688 62.2003 29.1432 62.0755 29.1432C61.9151 29.1432 61.7949 29.1705 61.7141 29.225C61.6514 29.2676 61.6012 29.3482 61.5628 29.4658L61.5622 29.4652Z" fill="white"/>
<path d="M65.1245 27.5479V28.5836H65.6638V29.3479H65.1245V30.3126C65.1245 30.4284 65.1347 30.5051 65.1562 30.5426C65.1883 30.6005 65.2442 30.6294 65.3244 30.6294C65.3967 30.6294 65.4978 30.6073 65.6277 30.563L65.6999 31.2836C65.4577 31.3398 65.2313 31.3682 65.0212 31.3682C64.7773 31.3682 64.5977 31.3347 64.4819 31.2682C64.3662 31.2018 64.2809 31.1007 64.2256 30.965C64.1702 30.8293 64.1426 30.6096 64.1426 30.3058V29.3484H63.7817V28.5841H64.1426V28.0844L65.1245 27.5484V27.5479Z" fill="white"/>
<path d="M66.2363 28.5836H67.216V31.3063H66.2363V28.5836ZM66.2363 27.5479H67.216V28.2582H66.2363V27.5479Z" fill="white"/>
<path d="M68.7737 29.9498C68.7737 30.1923 68.82 30.3717 68.912 30.4881C69.0041 30.6045 69.1204 30.6624 69.2599 30.6624C69.3993 30.6624 69.5168 30.6051 69.6077 30.4909C69.698 30.3762 69.7438 30.1928 69.7438 29.9396C69.7438 29.7039 69.698 29.5279 69.6066 29.4126C69.5151 29.2974 69.4022 29.2395 69.2672 29.2395C69.1243 29.2395 69.0063 29.2979 68.9137 29.4149C68.8205 29.5319 68.7742 29.7102 68.7742 29.9498M67.7917 29.9521C67.7917 29.537 67.9233 29.1946 68.1864 28.9255C68.4496 28.6563 68.8047 28.5217 69.2525 28.5217C69.7641 28.5217 70.1509 28.6796 70.4124 28.9959C70.6224 29.2502 70.7274 29.5643 70.7274 29.9367C70.7274 30.3558 70.597 30.6988 70.3361 30.9662C70.0753 31.2337 69.715 31.3677 69.2542 31.3677C68.8437 31.3677 68.5117 31.2564 68.2581 31.0343C67.947 30.759 67.7912 30.3984 67.7912 29.9526L67.7917 29.9521Z" fill="white"/>
<path d="M71.2695 28.5834H72.1815V29.0268C72.3176 28.8457 72.4559 28.7162 72.5954 28.6385C72.7349 28.5607 72.9048 28.5215 73.1059 28.5215C73.3769 28.5215 73.5892 28.6072 73.7422 28.7793C73.8953 28.9513 73.9721 29.2165 73.9721 29.5754V31.3061H72.9878V29.8087C72.9878 29.6378 72.9579 29.5169 72.8986 29.4459C72.8393 29.3749 72.7558 29.3397 72.6485 29.3397C72.5299 29.3397 72.4333 29.3874 72.3599 29.4834C72.2859 29.5793 72.2492 29.7508 72.2492 29.999V31.3067H71.2695V28.5839V28.5834Z" fill="white"/>
<path d="M335.782 29.7969H322.219C322.094 29.7969 321.985 29.7344 321.938 29.625C321.891 29.5156 321.891 29.3906 321.969 29.2969C323.219 27.6719 323.907 25.6562 323.907 23.6094V21.5938C323.907 18.7812 326.188 16.5 329.001 16.5C331.813 16.5 334.094 18.7812 334.094 21.5938V23.6094C334.094 25.6562 334.782 27.6719 336.032 29.2969C336.11 29.3906 336.11 29.5156 336.063 29.625C336.001 29.7344 335.907 29.7969 335.782 29.7969ZM322.829 29.1719H335.173C334.063 27.5312 333.469 25.5781 333.469 23.6094V21.5938C333.469 19.125 331.469 17.125 329.001 17.125C326.532 17.125 324.532 19.125 324.532 21.5938V23.6094C324.532 25.5938 323.938 27.5469 322.829 29.1719Z" fill="white"/>
<path d="M333.562 28.3906C333.5 28.3906 333.453 28.3594 333.422 28.2969C332.734 26.8281 332.375 25.2031 332.375 23.5938V21.5938C332.375 19.7344 330.859 18.2188 329 18.2188C328.906 18.2188 328.844 18.1563 328.844 18.0625C328.844 17.9688 328.906 17.9062 329 17.9062C331.031 17.9062 332.687 19.5625 332.687 21.5938V23.6094C332.687 25.1719 333.047 26.75 333.703 28.1719C333.734 28.25 333.703 28.3438 333.625 28.375C333.609 28.3906 333.578 28.3906 333.562 28.3906Z" fill="white"/>
<path d="M329 31.5781C327.844 31.5781 326.906 30.6406 326.906 29.4844C326.906 29.3125 327.047 29.1719 327.219 29.1719H330.781C330.953 29.1719 331.094 29.3125 331.094 29.4844C331.094 30.6406 330.156 31.5781 329 31.5781ZM327.563 29.7969C327.703 30.4531 328.297 30.9531 329 30.9531C329.703 30.9531 330.281 30.4531 330.437 29.7969H327.563Z" fill="white"/>
<path d="M327.234 17.4688C327.109 17.4688 326.984 17.3906 326.938 17.25C326.875 17.0312 326.828 16.8125 326.828 16.5938C326.828 15.4062 327.797 14.4219 329 14.4219C330.188 14.4219 331.172 15.3906 331.172 16.5938C331.172 16.8125 331.141 17.0469 331.062 17.25C331.016 17.4219 330.828 17.5 330.672 17.4531C330.5 17.4062 330.422 17.2188 330.469 17.0625C330.516 16.9062 330.547 16.75 330.547 16.5938C330.547 15.75 329.859 15.0469 329 15.0469C328.156 15.0469 327.453 15.7344 327.453 16.5938C327.453 16.75 327.484 16.9062 327.531 17.0625C327.578 17.2344 327.5 17.4062 327.328 17.4531C327.297 17.4531 327.266 17.4688 327.234 17.4688Z" fill="white"/>
<path d="M322.484 26C322.406 26 322.328 25.9687 322.266 25.9062C320.656 24.2969 320.656 21.6875 322.266 20.0938C322.391 19.9688 322.578 19.9688 322.703 20.0938C322.828 20.2188 322.828 20.4062 322.703 20.5312C321.344 21.8906 321.344 24.1094 322.703 25.4688C322.828 25.5938 322.828 25.7812 322.703 25.9062C322.641 25.9687 322.562 26 322.484 26Z" fill="white"/>
<path d="M321.189 27.2344C321.111 27.2344 321.032 27.2031 320.97 27.1406C318.595 24.7656 318.439 21.0469 320.626 18.8438C320.751 18.7188 320.939 18.7188 321.064 18.8438C321.189 18.9688 321.189 19.1562 321.064 19.2812C319.126 21.2344 319.282 24.5625 321.423 26.7031C321.548 26.8281 321.548 27.0156 321.423 27.1406C321.361 27.2188 321.282 27.2344 321.189 27.2344Z" fill="white"/>
<path d="M335.516 26C335.437 26 335.359 25.9687 335.297 25.9062C335.172 25.7812 335.172 25.5938 335.297 25.4688C336.656 24.1094 336.656 21.8906 335.297 20.5312C335.172 20.4062 335.172 20.2188 335.297 20.0938C335.422 19.9688 335.609 19.9688 335.734 20.0938C337.344 21.7031 337.344 24.3125 335.734 25.9062C335.672 25.9687 335.594 26 335.516 26Z" fill="white"/>
<path d="M336.797 27.2344C336.719 27.2344 336.641 27.2031 336.578 27.1406C336.453 27.0156 336.453 26.8281 336.578 26.7031C337.625 25.6562 338.219 24.3125 338.281 22.9062C338.344 21.5156 337.859 20.2187 336.922 19.2812C336.797 19.1562 336.797 18.9688 336.922 18.8438C337.047 18.7188 337.234 18.7188 337.359 18.8438C338.422 19.9062 338.969 21.3594 338.906 22.9375C338.844 24.5 338.172 26 337.016 27.1406C336.969 27.2188 336.875 27.2344 336.797 27.2344Z" fill="white"/>
</g>
<defs>
<filter id="filter0_b_1_1701" x="-32" y="-32" width="424" height="110" filterUnits="userSpaceOnUse" color-interpolation-filters="sRGB">
<feFlood flood-opacity="0" result="BackgroundImageFix"/>
<feGaussianBlur in="BackgroundImageFix" stdDeviation="16"/>
<feComposite in2="SourceAlpha" operator="in" result="effect1_backgroundBlur_1_1701"/>
<feBlend mode="normal" in="SourceGraphic" in2="effect1_backgroundBlur_1_1701" result="shape"/>
</filter>
</defs>
</svg>
