<svg width="32" height="32" viewBox="0 0 32 32" fill="none" xmlns="http://www.w3.org/2000/svg">
<g clip-path="url(#clip0_1_1542)">
<rect width="32" height="32" rx="16" fill="white"/>
<circle cx="16" cy="16" r="16" fill="url(#paint0_linear_1_1542)"/>
<circle cx="16" cy="16" r="15" fill="white"/>
<g clip-path="url(#clip1_1_1542)">
<path d="M7.58107 14.0439L4.22803 19.6934H5.76953L7.65901 16.5101L7.91167 16.8957L8.9703 18.5118L9.69231 17.2861L7.58107 14.0439Z" fill="#002551"/>
<path d="M6.24805 19.6938H8.26108L10.7123 15.5684L13.4076 19.6938H15.431L10.6218 12.3389L6.24805 19.6938Z" fill="#002551"/>
<path d="M8.74365 19.6932L9.74293 18.011L10.2077 18.7204L11.2007 17.0527L12.9283 19.6932H8.74365Z" fill="#3399FF"/>
<path d="M23.753 15.5008C23.753 15.9212 23.9434 16.3291 24.3532 16.3291C24.6994 16.3291 24.7974 16.1739 24.8783 15.9732H25.7035C25.5998 16.3808 25.2706 17.0536 24.3358 17.0536C23.3491 17.0536 22.9219 16.2319 22.9219 15.3519C22.9219 14.2973 23.4009 13.5467 24.3645 13.5467C25.386 13.5467 25.7378 14.3813 25.7378 15.2159C25.7378 15.3322 25.7378 15.4034 25.7262 15.5006H23.7528L23.753 15.5008ZM24.9072 14.9315C24.9014 14.5433 24.7629 14.2132 24.359 14.2132C23.955 14.2132 23.8049 14.5173 23.7704 14.9315H24.9072Z" fill="#002551"/>
<path d="M26.927 15.9667C26.9905 16.2385 27.1867 16.3871 27.4926 16.3871C27.7986 16.3871 27.9082 16.2642 27.9082 16.0573C27.9082 15.8503 27.7812 15.7597 27.3541 15.6431C26.379 15.3713 26.2231 15.0349 26.2231 14.5627C26.2231 14.0906 26.5288 13.547 27.4292 13.547C28.3295 13.547 28.6468 14.1034 28.6698 14.5562H27.885C27.8561 14.4333 27.7812 14.2003 27.3944 14.2003C27.1232 14.2003 27.0308 14.3361 27.0308 14.485C27.0308 14.6533 27.1232 14.7308 27.6077 14.8603C28.6061 15.1192 28.7504 15.5008 28.7504 15.9927C28.7504 16.5491 28.3696 17.0539 27.4634 17.0539C26.5573 17.0539 26.1823 16.5622 26.1131 15.9669H26.9268L26.927 15.9667Z" fill="#002551"/>
<path d="M15.4312 17.0532L15.4317 12.3387H16.5232L17.2572 14.6032L17.9816 12.3387H19.026V17.0532H18.0907L18.0936 14.3756L17.6045 15.9251H16.8405L16.3446 14.3059L16.3644 17.0532H15.4312Z" fill="#002551"/>
<path d="M19.744 17.0532V13.6096H20.6849V17.0532H19.744ZM19.744 13.2382V12.339H20.6849V13.2382H19.744Z" fill="#002551"/>
<path d="M22.3419 12.339H21.4042V17.0532H22.3419V12.339Z" fill="#002551"/>
<path d="M17.1587 18.0206H18.4073V18.3772H17.6257V18.6427H18.3506V18.9834H17.6257V19.3127H18.4297V19.691H17.1587V18.0206Z" fill="#002551"/>
<path d="M19.4539 19.0828C19.4539 18.988 19.4358 18.917 19.3993 18.8703C19.3629 18.8237 19.317 18.8002 19.2615 18.8002C19.2128 18.8002 19.172 18.8227 19.1392 18.8673C19.1064 18.9122 19.0897 18.9874 19.0897 19.0929C19.0897 19.1916 19.1066 19.264 19.1406 19.31C19.1747 19.3559 19.2166 19.3789 19.2666 19.3789C19.3202 19.3789 19.3646 19.3556 19.4003 19.3092C19.436 19.2628 19.4539 19.1873 19.4539 19.0826M19.8735 18.0209V19.6913H19.4816V19.5124C19.4268 19.5883 19.3766 19.6396 19.3315 19.6661C19.2712 19.7009 19.2041 19.7186 19.13 19.7186C18.9811 19.7186 18.8675 19.656 18.789 19.5305C18.7106 19.4051 18.6713 19.2529 18.6713 19.0735C18.6713 18.8729 18.7147 18.7194 18.8013 18.6132C18.888 18.5069 18.9983 18.4537 19.1319 18.4537C19.1971 18.4537 19.2562 18.4658 19.3093 18.4903C19.3624 18.5145 19.4097 18.5511 19.4507 18.5996V18.0206H19.8735V18.0209Z" fill="#002551"/>
<path d="M21.3408 19.6917H20.9498V19.4956C20.8917 19.5761 20.8328 19.6334 20.7734 19.6677C20.7141 19.7018 20.6412 19.7189 20.5548 19.7189C20.4397 19.7189 20.3492 19.6808 20.2838 19.6043C20.2184 19.5279 20.1856 19.4105 20.1856 19.2518V18.4816H20.6062V19.1471C20.6062 19.223 20.619 19.277 20.6443 19.3088C20.6697 19.3406 20.7054 19.3568 20.7512 19.3568C20.8014 19.3568 20.8422 19.3356 20.8741 19.2929C20.9059 19.2503 20.9218 19.1741 20.9218 19.0638V18.4816H21.3405V19.6917H21.3408Z" fill="#002551"/>
<path d="M22.4694 19.2179L22.8673 19.2681C22.8454 19.36 22.8094 19.4395 22.7592 19.5068C22.7093 19.574 22.6453 19.6262 22.5674 19.6636C22.4894 19.7007 22.3907 19.7193 22.2706 19.7193C22.1504 19.7193 22.0582 19.7075 21.981 19.6835C21.9038 19.6595 21.8374 19.6209 21.7819 19.5674C21.7264 19.5139 21.6827 19.4511 21.6513 19.3789C21.6197 19.3067 21.604 19.2111 21.604 19.092C21.604 18.9728 21.6231 18.8638 21.6617 18.781C21.69 18.7202 21.7281 18.666 21.7768 18.6175C21.8256 18.5693 21.8755 18.5335 21.9269 18.51C22.0085 18.4729 22.113 18.4542 22.2406 18.4542C22.419 18.4542 22.5548 18.4896 22.6485 18.5602C22.7421 18.6309 22.8077 18.7341 22.8454 18.8701L22.4515 18.9282C22.4392 18.8764 22.4168 18.8376 22.3842 18.8113C22.3516 18.7851 22.308 18.772 22.2532 18.772C22.1839 18.772 22.1279 18.7995 22.085 18.8545C22.042 18.9095 22.0208 18.9928 22.0208 19.1041C22.0208 19.2035 22.042 19.279 22.0845 19.3304C22.127 19.3819 22.1813 19.4079 22.2471 19.4079C22.3019 19.4079 22.348 19.3923 22.3854 19.3612C22.4228 19.3302 22.4506 19.2822 22.4692 19.2176" fill="#002551"/>
<path d="M23.834 19.1174C23.7763 19.1402 23.7165 19.1603 23.654 19.1778C23.569 19.203 23.515 19.2275 23.4925 19.252C23.4691 19.2769 23.4575 19.3055 23.4575 19.3375C23.4575 19.3738 23.4691 19.4039 23.492 19.4271C23.515 19.4503 23.5487 19.4619 23.5934 19.4619C23.638 19.4619 23.6834 19.4493 23.7235 19.4243C23.7635 19.3993 23.792 19.3688 23.8089 19.3327C23.8258 19.2966 23.8342 19.2497 23.8342 19.1919V19.1179L23.834 19.1174ZM23.4708 18.8737L23.0707 18.827C23.0859 18.7495 23.1076 18.6887 23.1361 18.644C23.1646 18.5996 23.2056 18.561 23.2589 18.5284C23.2973 18.5049 23.3501 18.4865 23.4172 18.4737C23.4846 18.4608 23.5572 18.4542 23.6354 18.4542C23.7609 18.4542 23.8617 18.462 23.9377 18.4777C24.0138 18.4933 24.0772 18.5256 24.1279 18.5751C24.1636 18.6092 24.1916 18.6576 24.2124 18.7205C24.2329 18.7831 24.2432 18.8429 24.2432 18.8999V19.4344C24.2432 19.4914 24.2466 19.5361 24.2531 19.5684C24.2597 19.6007 24.2739 19.6419 24.2958 19.6921H23.903C23.8873 19.661 23.8769 19.6373 23.8721 19.6209C23.8673 19.6045 23.8624 19.579 23.8576 19.5439C23.8028 19.6025 23.7483 19.6441 23.694 19.6694C23.6199 19.7027 23.534 19.7196 23.4358 19.7196C23.3055 19.7196 23.2066 19.6863 23.139 19.6194C23.0714 19.5525 23.0376 19.47 23.0376 19.3721C23.0376 19.2802 23.062 19.2045 23.1108 19.1452C23.1595 19.0859 23.2493 19.042 23.3803 19.013C23.5374 18.9781 23.6392 18.9537 23.6858 18.9395C23.7324 18.9254 23.7819 18.907 23.834 18.8843C23.834 18.8272 23.8234 18.7873 23.8021 18.7646C23.7809 18.7419 23.7435 18.7306 23.6902 18.7306C23.6216 18.7306 23.5702 18.7427 23.5357 18.7669C23.5089 18.7858 23.4875 18.8217 23.471 18.8739L23.4708 18.8737Z" fill="#002551"/>
<path d="M24.9935 18.0209V18.4812H25.2239V18.8209H24.9935V19.2496C24.9935 19.3011 24.9978 19.3352 25.007 19.3519C25.0207 19.3776 25.0446 19.3905 25.0789 19.3905C25.1098 19.3905 25.153 19.3806 25.2085 19.3609L25.2394 19.6812C25.1358 19.7062 25.0391 19.7188 24.9493 19.7188C24.8451 19.7188 24.7683 19.7039 24.7188 19.6744C24.6694 19.6448 24.6329 19.5999 24.6093 19.5396C24.5856 19.4793 24.5738 19.3816 24.5738 19.2466V18.8211H24.4196V18.4814H24.5738V18.2594L24.9935 18.0211V18.0209Z" fill="#002551"/>
<path d="M25.4686 18.4812H25.8873V19.6913H25.4686V18.4812ZM25.4686 18.0209H25.8873V18.3366H25.4686V18.0209Z" fill="#002551"/>
<path d="M26.5527 19.0889C26.5527 19.1967 26.5725 19.2764 26.6119 19.3282C26.6512 19.3799 26.7009 19.4056 26.7605 19.4056C26.8201 19.4056 26.8703 19.3802 26.9092 19.3294C26.9478 19.2785 26.9673 19.1969 26.9673 19.0844C26.9673 18.9796 26.9478 18.9014 26.9087 18.8502C26.8696 18.799 26.8213 18.7732 26.7637 18.7732C26.7026 18.7732 26.6522 18.7992 26.6126 18.8512C26.5728 18.9032 26.553 18.9824 26.553 19.0889M26.1331 19.0899C26.1331 18.9055 26.1893 18.7533 26.3018 18.6337C26.4142 18.514 26.566 18.4542 26.7574 18.4542C26.976 18.4542 27.1413 18.5244 27.253 18.6649C27.3428 18.778 27.3877 18.9176 27.3877 19.0831C27.3877 19.2694 27.3319 19.4218 27.2205 19.5407C27.109 19.6595 26.955 19.7191 26.7581 19.7191C26.5827 19.7191 26.4408 19.6696 26.3324 19.5709C26.1995 19.4485 26.1329 19.2883 26.1329 19.0902L26.1331 19.0899Z" fill="#002551"/>
<path d="M27.6197 18.4817H28.0094V18.6788C28.0675 18.5983 28.1267 18.5408 28.1863 18.5062C28.2459 18.4716 28.3185 18.4542 28.4044 18.4542C28.5203 18.4542 28.611 18.4923 28.6764 18.5688C28.7418 18.6453 28.7746 18.7631 28.7746 18.9226V19.6918H28.354V19.0263C28.354 18.9504 28.3412 18.8966 28.3159 18.8651C28.2905 18.8335 28.2548 18.8179 28.209 18.8179C28.1583 18.8179 28.117 18.8391 28.0856 18.8817C28.054 18.9244 28.0384 19.0006 28.0384 19.1109V19.6921H27.6197V18.482V18.4817Z" fill="#002551"/>
</g>
</g>
<defs>
<linearGradient id="paint0_linear_1_1542" x1="32" y1="0" x2="0" y2="32" gradientUnits="userSpaceOnUse">
<stop stop-color="#00F9D2"/>
<stop offset="0.333333" stop-color="#F752AC"/>
<stop offset="0.666667" stop-color="#3921FC"/>
<stop offset="1" stop-color="#FFEB34"/>
</linearGradient>
<clipPath id="clip0_1_1542">
<rect width="32" height="32" rx="16" fill="white"/>
</clipPath>
<clipPath id="clip1_1_1542">
<rect width="25" height="8" fill="white" transform="translate(4 12)"/>
</clipPath>
</defs>
</svg>
